# xmcd
#
# Track frame offsets:
# 150
# 17998
# 34238
#
# Disc length: 930 seconds
#
# Revision: 1
# Processed by: cddbd v1.5.2PL0 Copyright (c) Steve Scherf et al.
# Submitted via: CedeCatalogueitor 2.6.0.6 http://personales.ya.com/cdcatalogueitor
#
DISCID=1f03a003
DTITLE=Kelly Osbourne - One Word [CD Promo)
DYEAR=1900
DGENRE=
TTITLE0=One Word (Chris Cox Radio Mix)
TTITLE1=One Word Radio Edit
TTITLE2=One Word (Chris Cox Club Remix)
EXTD=
EXTT0=
EXTT1=
EXTT2=
PLAYORDER=
